<svg xmlns="http://www.w3.org/2000/svg" viewBox="0 0 320.01 319.38"><defs><style>.cls-1{fill:#fff;}</style></defs><title>Ресурс 1</title><g id="Слой_2"><g id="Слой_1-2"><polygon class="cls-1" points="136.88 68.45 68.44 0.01 0 68.45 0 136.88 136.88 136.88 136.88 68.45"/><polygon class="cls-1" points="182.5 182.5 250.94 250.94 319.38 182.5 319.38 319.38 182.5 319.38 182.5 182.5"/><rect class="cls-1" y="182.5" width="136.88" height="136.88"/><polygon class="cls-1" points="182.5 0 209.97 0 209.97 6.04 199.58 6.04 199.58 32.76 192.85 32.76 192.85 6.04 182.5 6.04 182.5 0"/><polygon class="cls-1" points="214.99 32.76 214.99 0 221.73 0 221.73 12.27 236.51 12.27 236.51 0 243.21 0 243.21 32.76 236.51 32.76 236.51 18.39 221.73 18.39 221.73 32.76 214.99 32.76"/><polygon class="cls-1" points="249.18 32.76 249.18 0 273.75 0 273.75 6.04 255.92 6.04 255.92 12.35 269.87 12.35 269.87 18.3 255.92 18.3 255.92 26.73 273.75 26.73 273.75 32.76 249.18 32.76"/><path class="cls-1" d="M286.59,0h32.76V12.27c0,5.29-1.54,9.64-4.58,13a16.48,16.48,0,0,1-23.65,0c-3-3.33-4.53-7.68-4.53-13Zm6,6.75V11.7c0,7.31,3.84,11.61,10.35,11.61S313.31,19,313.31,11.7V6.75Z"/><path class="cls-1" d="M315.05,40a16.26,16.26,0,0,1,5,12.17,16.2,16.2,0,0,1-5,12.12,17.42,17.42,0,0,1-24.16,0,16.2,16.2,0,0,1-5-12.12,16.26,16.26,0,0,1,5-12.17,17.52,17.52,0,0,1,24.16,0M292.25,52.2a9.55,9.55,0,0,0,3,7.2,11.61,11.61,0,0,0,15.35,0,9.52,9.52,0,0,0,3.05-7.2,9.62,9.62,0,0,0-3.05-7.26,11.76,11.76,0,0,0-15.35,0,9.65,9.65,0,0,0-3,7.26"/><polygon class="cls-1" points="286.59 75.27 319.35 75.27 319.35 81.96 305.77 91.47 319.35 100.96 319.35 107.61 286.59 107.61 286.59 100.96 309.01 100.96 298.47 93.43 298.47 89.69 309.01 82.01 286.59 82.01 286.59 75.27"/></g></g></svg>